# xmcd
#
# Track frame offsets:
#	150
#	12645
#	27136
#	38145
#	53431
#	64894
#	77853
#	86112
#	101333
#	112273
#
# Disc length: 1816 seconds
#
# Revision: 1
# Processed by: cddbd v1.5.2PL0 Copyright (c) Steve Scherf et al.
# Submitted via: audiograbber 1.83.01
#
DISCID=7d07160a
DTITLE=Michael Hortig  - The Piano Blues Of Mh
DYEAR=1900
DGENRE=
TTITLE0=Dozen Stomp
TTITLE1=Befo Day
TTITLE2=Little Mama Boogie
TTITLE3=Ma Grinder
TTITLE4=Cow Cow Blues
TTITLE5=Lofton Boogie
TTITLE6=Blues In St. Louis
TTITLE7=Montana's Breakdown
TTITLE8=Blues In G
TTITLE9=Honky Tonk Train Blues
EXTD=
EXTT0=
EXTT1=
EXTT2=
EXTT3=
EXTT4=
EXTT5=
EXTT6=
EXTT7=
EXTT8=
EXTT9=
PLAYORDER=
